<svg width="6" height="9" viewBox="0 0 6 9" fill="none" xmlns="http://www.w3.org/2000/svg">
<path d="M5.24693 4.01239L1.45954 0.139051C1.37194 0.0493933 1.255 0 1.13032 0C1.00563 0 0.888696 0.0493933 0.801098 0.139051L0.522183 0.42423C0.340691 0.610057 0.340691 0.912078 0.522183 1.09762L3.70255 4.35022L0.518654 7.60643C0.431056 7.69608 0.38269 7.8156 0.38269 7.94305C0.38269 8.07064 0.431056 8.19016 0.518654 8.27989L0.79757 8.565C0.885237 8.65465 1.0021 8.70405 1.12679 8.70405C1.25147 8.70405 1.36841 8.65465 1.45601 8.565L5.24693 4.68812C5.33474 4.59818 5.38297 4.47809 5.38269 4.35043C5.38297 4.22228 5.33474 4.10226 5.24693 4.01239Z" fill="#F76820"/>
</svg>
