<svg width="45" height="52" viewBox="0 0 45 52" fill="none" xmlns="http://www.w3.org/2000/svg">
<path d="M9.92765 0.788086C8.19619 0.788086 6.77954 2.20474 6.77954 3.9362V48.0097C6.77954 49.7412 8.19619 51.1578 9.92765 51.1578H41.4087C43.1402 51.1578 44.5569 49.7412 44.5569 48.0097V13.3805L31.9644 0.788086H9.92765Z" fill="#E2E5E7"/>
<path d="M35.1127 13.3805H44.557L31.9646 0.788086V10.2324C31.9646 11.9639 33.3812 13.3805 35.1127 13.3805Z" fill="#B0B7BD"/>
<path d="M44.5569 22.8248L35.1125 13.3805H44.5569V22.8248Z" fill="#CAD1D8"/>
<path d="M38.2607 41.7134C38.2607 42.5791 37.5524 43.2875 36.6867 43.2875H2.05745C1.19172 43.2875 0.483398 42.5791 0.483398 41.7134V25.9729C0.483398 25.1071 1.19172 24.3988 2.05745 24.3988H36.6867C37.5524 24.3988 38.2607 25.1071 38.2607 25.9729V41.7134Z" fill="#F15642"/>
<path d="M7.34546 30.6114C7.34546 30.1959 7.67286 29.7426 8.20017 29.7426H11.1074C12.7445 29.7426 14.2178 30.8381 14.2178 32.9379C14.2178 34.9275 12.7445 36.0356 11.1074 36.0356H9.00609V37.6978C9.00609 38.2519 8.6535 38.5651 8.20017 38.5651C7.78462 38.5651 7.34546 38.2519 7.34546 37.6978V30.6114ZM9.00609 31.3276V34.4631H11.1074C11.9511 34.4631 12.6185 33.7186 12.6185 32.9379C12.6185 32.058 11.9511 31.3276 11.1074 31.3276H9.00609Z" fill="white"/>
<path d="M16.6824 38.5651C16.2668 38.5651 15.8135 38.3384 15.8135 37.7859V30.6366C15.8135 30.1848 16.2668 29.8558 16.6824 29.8558H19.5644C25.316 29.8558 25.1901 38.5651 19.6778 38.5651H16.6824ZM17.4757 31.3921V37.0304H19.5644C22.9628 37.0304 23.1139 31.3921 19.5644 31.3921H17.4757Z" fill="white"/>
<path d="M27.23 31.493V33.4936H30.4395C30.8928 33.4936 31.3461 33.9469 31.3461 34.3861C31.3461 34.8016 30.8928 35.1416 30.4395 35.1416H27.23V37.7845C27.23 38.2252 26.9167 38.5636 26.476 38.5636C25.9219 38.5636 25.5835 38.2252 25.5835 37.7845V30.6351C25.5835 30.1833 25.9235 29.8544 26.476 29.8544H30.8944C31.4484 29.8544 31.7758 30.1833 31.7758 30.6351C31.7758 31.0381 31.4484 31.4914 30.8944 31.4914H27.23V31.493Z" fill="white"/>
<path d="M36.6866 43.2876H6.77954V44.8616H36.6866C37.5523 44.8616 38.2606 44.1533 38.2606 43.2876V41.7135C38.2606 42.5792 37.5523 43.2876 36.6866 43.2876Z" fill="#CAD1D8"/>
</svg>
