<svg width="43" height="45" viewBox="0 0 43 45" fill="none" xmlns="http://www.w3.org/2000/svg">
<path d="M2.71107 4.84766H12.9949C13.6684 4.84766 14.2905 5.22415 14.6266 5.83492L16.3191 8.25466C16.6552 8.86543 17.2774 9.24193 17.9508 9.24193H42.9999V36.8684C42.9999 38.3193 41.8759 39.4956 40.4895 39.4956H2.51044C1.124 39.4956 0 38.3193 0 36.8684V12.3065C0 10.2758 0.299802 8.25716 0.888845 6.32221C1.10463 5.45382 1.85372 4.84766 2.71107 4.84766Z" fill="#F6C358"/>
<path d="M36.966 8.79016H3.91333V23.402H36.966V8.79016Z" fill="#EBF0F3"/>
<path d="M41.1172 6.16113H30.754C30.017 6.16113 29.3477 6.61114 29.0415 7.31262L27.2681 11.3742C26.9618 12.0757 26.2926 12.5257 25.5556 12.5257H0V37.525C0 38.9759 1.124 40.1522 2.51044 40.1522H40.4896C41.876 40.1522 43 38.9759 43 37.525V8.13153C43 7.04337 42.157 6.16113 41.1172 6.16113Z" fill="#FCD462"/>
</svg>
