<svg width="85" height="63" viewBox="0 0 85 63" fill="none" xmlns="http://www.w3.org/2000/svg">
<circle cx="54.9035" cy="32.2439" r="29.7984" fill="#FFF4EE"/>
<path d="M29.4494 34.6596C29.2101 34.6596 28.9722 34.6071 28.7505 34.5021L1.04769 21.3405C0.479738 21.0708 0.117958 20.4977 0.11731 19.8688C0.11731 19.2399 0.47909 18.6667 1.04705 18.397L28.7505 5.23287C29.1926 5.0228 29.7068 5.0228 30.1483 5.23287L57.8556 18.3976C58.4236 18.6674 58.786 19.2405 58.786 19.8694C58.786 20.4983 58.4236 21.0714 57.8556 21.3412L30.1483 34.5021C29.9266 34.6071 29.6886 34.6596 29.4494 34.6596ZM5.54207 19.8694L29.4494 31.2279L53.3612 19.8694L29.4494 8.50769L5.54207 19.8694Z" fill="#F76820"/>
<path d="M29.4494 45.7568C29.2101 45.7568 28.9722 45.7043 28.7505 45.5993L1.04769 32.4378C0.235307 32.0513 -0.110913 31.0795 0.275505 30.2671C0.661922 29.4547 1.63315 29.1091 2.44619 29.4949L29.45 42.3245L56.4584 29.4949C57.2728 29.1091 58.2433 29.4547 58.6291 30.2671C59.0149 31.0801 58.6693 32.0513 57.8569 32.4378L30.1483 45.5993C29.9266 45.7043 29.6886 45.7568 29.4494 45.7568Z" fill="#F76820"/>
<path d="M29.4494 56.8565C29.2101 56.8565 28.9715 56.804 28.7505 56.699L1.04769 43.5361C0.235307 43.1497 -0.110913 42.1778 0.275505 41.3655C0.661922 40.5531 1.63315 40.2075 2.44619 40.5933L29.45 53.4242L56.4584 40.5933C57.2728 40.2075 58.2433 40.5537 58.6291 41.3655C59.0149 42.1778 58.6693 43.1497 57.8569 43.5361L30.1483 56.699C29.9266 56.804 29.6886 56.8565 29.4494 56.8565Z" fill="#F76820"/>
</svg>
