<svg width="93" height="66" viewBox="0 0 93 66" fill="none" xmlns="http://www.w3.org/2000/svg">
<circle cx="63.0288" cy="33.2439" r="29.7984" fill="#FFF4EE"/>
<path d="M17.4095 47.4375L16.4692 45.5569L17.1395 40.1948C17.3942 38.1562 17.3942 36.0938 17.1395 34.0552L16.4454 28.5024L17.5312 27.4166V26.8125H4.125V27.4166L5.21082 28.5024L4.49454 34.2329C4.25403 36.159 4.2407 38.1067 4.45482 40.036L5.20465 46.785L4.5522 47.4375H17.4095ZM13.4062 40.2187H8.25V38.1562H13.4062V40.2187ZM7.21875 34.0312H14.4375V36.0937H7.21875V34.0312Z" fill="#F76820"/>
<path d="M57.75 31.9688H55.6875V36.0938H57.75V31.9688Z" fill="#F76820"/>
<path d="M59.8125 31.9688V38.1562H53.625V31.9688H45.375V43.3125H61.875V31.9688H59.8125Z" fill="#F76820"/>
<path d="M45.8669 29.9063H61.3831L60.1456 26.8125H47.1044L45.8669 29.9063Z" fill="#F76820"/>
<path d="M39.9719 10.7777L41.4726 8.39382L41.215 8.03064L38.5491 8.75512L36.5306 7.2518L36.3801 4.42857L35.9951 4.3003L34.2571 6.48931H31.7429L30.005 4.30029L29.6201 4.42857L29.4696 7.25167L27.451 8.75499L24.7851 8.03039L24.5275 8.3937L26.0281 10.7777L25.2666 13.1791L22.6875 14.2025V14.6725L25.2666 15.6959L26.0281 18.0974L24.5274 20.4813L24.785 20.8445L27.4509 20.12L29.4694 21.6233L29.6199 24.4466L30.0049 24.5748L31.7429 22.3858H34.2571L35.995 24.5748L36.38 24.4466L36.5305 21.6235L38.549 20.1201L41.2149 20.8447L41.4725 20.4814L39.9719 18.0974L40.7334 15.696L43.3125 14.6726V14.2027L40.7334 13.1792L39.9719 10.7777ZM33 19.5938C31.9802 19.5938 30.9833 19.2914 30.1353 18.7248C29.2874 18.1583 28.6265 17.353 28.2362 16.4108C27.846 15.4686 27.7439 14.4318 27.9428 13.4316C28.1418 12.4314 28.6329 11.5127 29.354 10.7915C30.0751 10.0704 30.9938 9.57934 31.9941 9.38039C32.9943 9.18143 34.031 9.28354 34.9732 9.67381C35.9154 10.0641 36.7207 10.725 37.2873 11.5729C37.8538 12.4208 38.1562 13.4178 38.1562 14.4376C38.1547 15.8046 37.611 17.1152 36.6443 18.0819C35.6777 19.0485 34.367 19.5923 33 19.5938Z" fill="#F76820"/>
<path d="M33 17.5312C34.7086 17.5312 36.0938 16.1461 36.0938 14.4375C36.0938 12.7289 34.7086 11.3438 33 11.3438C31.2914 11.3438 29.9062 12.7289 29.9062 14.4375C29.9062 16.1461 31.2914 17.5312 33 17.5312Z" fill="#F76820"/>
<path d="M41.6936 52.477C41.6026 52.0192 41.3466 51.5913 40.9556 51.2438C40.5645 50.8963 40.0549 50.6436 39.4866 50.5155L36.3068 49.8037C35.6617 49.6575 35.0944 49.3515 34.6901 48.9315C34.2857 48.5114 34.066 48 34.0638 47.4739V46.7424L35.2197 45.8367C35.5078 45.6122 35.7362 45.3452 35.8916 45.0511C36.0471 44.757 36.1266 44.4416 36.1255 44.1233V41.4231C36.1255 40.7804 35.7997 40.1641 35.2197 39.7097C34.6398 39.2553 33.8532 39 33.033 39C32.2128 39 31.4262 39.2553 30.8462 39.7097C30.2663 40.1641 29.9404 40.7804 29.9404 41.4231V44.1233C29.9393 44.4417 30.0188 44.757 30.1743 45.0511C30.3298 45.3452 30.5582 45.6123 30.8463 45.8368L32.0021 46.7424V47.4739C32 48 31.7803 48.5114 31.3759 48.9315C30.9715 49.3515 30.4042 49.6575 29.7591 49.8037L26.5491 50.5223C25.9862 50.6495 25.4806 50.8989 25.091 51.2417C24.7013 51.5845 24.4433 52.0067 24.347 52.4595C23.9279 54.4638 23.3559 57.2383 23.011 59.0746C22.9894 59.1894 22.9996 59.3065 23.041 59.4179C23.0823 59.5293 23.1538 59.6324 23.2506 59.7202C23.3473 59.808 23.4671 59.8785 23.6018 59.9268C23.7364 59.975 23.8828 60 24.0309 60H41.9691C42.1178 60 42.2646 59.9748 42.3997 59.9262C42.5347 59.8776 42.6547 59.8066 42.7515 59.7182C42.8483 59.6299 42.9195 59.5261 42.9603 59.4142C43.0012 59.3022 43.0106 59.1847 42.988 59.0696L41.6936 52.477Z" fill="#F76820"/>
<path d="M14.3927 52.3049C15.8111 53.6722 17.3751 54.8799 19.0567 55.9063L20.1308 54.1454C18.5781 53.1977 17.1339 52.0827 15.8242 50.8202L14.3927 52.3049Z" fill="#F76820"/>
<path d="M45.8692 54.1455L46.9433 55.9063C50.2304 53.894 53.0509 51.204 55.2166 48.0158L53.5088 46.8594C51.509 49.8034 48.9046 52.2873 45.8692 54.1455Z" fill="#F76820"/>
<path d="M55.6911 23.1004L57.581 22.2746C55.1917 16.8358 51.0758 12.3364 45.8707 9.47327L44.8793 11.2817C49.6849 13.9251 53.485 18.0791 55.6911 23.1004Z" fill="#F76820"/>
<path d="M19.1407 12.4912L17.9843 10.7834C13.7719 13.6306 10.4548 17.6156 8.41895 22.2746L10.309 23.1004C12.1887 18.7989 15.2514 15.1198 19.1407 12.4912Z" fill="#F76820"/>
</svg>
