<svg width="85" height="61" viewBox="0 0 85 61" fill="none" xmlns="http://www.w3.org/2000/svg">
<circle cx="54.6304" cy="30.2439" r="29.7984" fill="#FFF4EE"/>
<g clip-path="url(#clip0_7_70)">
<path d="M28.4764 3C13.0125 3 0.47644 15.5361 0.47644 31C0.47644 46.4639 13.0125 59 28.4764 59C43.9403 59 56.4764 46.4639 56.4764 31C56.4764 15.5361 43.9403 3 28.4764 3ZM28.4764 54.6923C15.4119 54.6923 4.78413 44.0638 4.78413 31C4.78413 17.9362 15.4119 7.30769 28.4764 7.30769C41.541 7.30769 52.1688 17.9362 52.1688 31C52.1688 44.0638 41.541 54.6923 28.4764 54.6923Z" fill="#F76820"/>
<path d="M39.2457 35.5956C39.2457 34.0599 38.8487 32.7137 38.0675 31.5966C37.2907 30.4744 36.3007 29.6667 35.1225 29.2015C33.8661 28.7047 31.7209 28.1167 28.7464 27.4569C26.8338 27.0347 26.2716 26.6779 25.9909 26.413C25.5587 25.9966 25.3376 25.4603 25.3376 24.8687C25.3376 23.9835 25.764 22.4916 28.6272 22.4916C30.0969 22.4916 31.2901 22.9087 32.1803 23.7329C32.4747 24.0086 32.7317 24.3403 32.9514 24.7014L32.96 24.7115L33.0053 24.794C33.1101 24.9742 33.2982 25.0869 33.51 25.0869H38.0955C38.4193 25.0869 38.6814 24.827 38.6814 24.5033C38.6799 24.4056 38.5974 24.1105 38.5105 23.8779C37.2907 20.6845 34.8884 18.8422 31.1867 18.2298V15.5813C31.1867 15.0881 30.7825 14.6853 30.2864 14.6853H26.6938C26.2041 14.6853 25.8021 15.0888 25.8021 15.5813V18.3303C23.5937 18.7812 21.9137 19.67 20.8044 20.9781C19.5624 22.4693 18.9521 24.1227 18.9521 26.0354C18.9521 27.7513 19.5021 29.223 20.6278 30.5491C21.7507 31.8701 24.55 32.988 28.9611 33.8926C30.229 34.1467 31.1106 34.4605 31.6577 34.8388C32.3067 35.2825 32.6535 35.9517 32.6535 36.7536C32.6535 37.8241 32.0138 39.0898 28.9812 39.0898C27.9516 39.0898 27.0743 38.9369 26.3169 38.6052C25.2529 38.1543 24.4423 37.3811 23.9189 36.2992L23.8866 36.2446L23.8751 36.2058C23.7782 36.0163 23.5793 35.8914 23.3618 35.8914H18.2909C17.9729 35.8914 17.7065 36.1556 17.7065 36.4549C17.7137 36.5418 17.7539 36.7235 17.7524 36.7299C18.9643 40.6844 21.6014 42.9438 25.8014 43.6395V46.4186C25.8014 46.9126 26.2041 47.3154 26.6931 47.3154H30.2857C30.7818 47.3154 31.186 46.9119 31.186 46.4186V43.6438C33.5897 43.2539 35.5231 42.3859 36.9281 41.0448C38.4868 39.5708 39.2457 37.7839 39.2457 35.5956Z" fill="#F76820"/>
</g>
<defs>
<clipPath id="clip0_7_70">
<rect width="56" height="56" fill="white" transform="translate(0.47644 3)"/>
</clipPath>
</defs>
</svg>
