<svg width="172" height="48" viewBox="0 0 172 48" fill="none" xmlns="http://www.w3.org/2000/svg">
<path d="M8.1129 29.6788H0.431274C4.62125 45.042 13.3504 47.8353 21.032 47.8353C27.1773 47.8353 31.7397 45.5076 33.2528 44.3437L37.4427 47.8353H48.616L38.4902 38.7571C39.5377 36.7785 41.6327 31.8436 41.6327 27.933C41.6327 13.4077 27.8989 8.37973 21.032 7.6814V15.0139C30.8086 15.0139 34.9986 24.0921 34.9986 27.2346C34.9986 32.2626 33.3691 34.2179 32.5544 34.5671H22.0795L27.6661 39.8046C26.3859 40.3865 23.2666 41.5504 21.032 41.5504C12.652 41.5504 8.92762 33.636 8.1129 29.6788Z" fill="#575557"/>
<path d="M2.02691 21.6761H11.1029V25H14.9253V21.6761H17.2705V18.4723H14.9253V6.09091H9.92108L2.02691 18.5277V21.6761ZM11.1768 18.4723H6.05247V18.3246L11.029 10.4489H11.1768V18.4723Z" fill="#FF8616"/>
<path d="M45.8812 25.419C45.8812 24.5746 46.4865 24.129 46.7892 24.0117C47.5156 24.0117 47.899 24.9499 47.9999 25.419V30.3445H54.3559V25.419C54.3559 24.9499 54.5375 24.0117 55.2639 24.0117C55.9903 24.0117 56.1719 24.9499 56.1719 25.419V33.1591H47.9999C46.3049 33.1591 45.8812 31.2827 45.8812 30.3445V25.419Z" fill="#575557"/>
<path d="M71.0364 25.1553V33.1592H69.0186V28.1567H62.2926V30.4912H67.0008H68.6823V31.8252L67.0008 33.1592H62.2926C61.2837 33.1592 59.6022 31.4917 59.6022 29.1572C59.6022 26.8228 60.9474 25.1553 62.2926 25.1553H71.0364Z" fill="#575557"/>
<path d="M67.0008 33.1592C65.7677 33.1592 63.0997 33.1592 62.2926 33.1592C61.2837 33.1592 59.6022 31.4917 59.6022 29.1572C59.6022 26.8228 60.9474 25.1553 62.2926 25.1553H71.0364V33.1592H69.0186V28.1567H62.2926V30.4912H67.0008M67.0008 33.1592V30.4912M67.0008 33.1592L68.6823 31.8252V30.4912H67.0008" stroke="#575557" stroke-width="0.3"/>
<path d="M113.343 25.1553V33.1592H111.325V28.1567H104.599V30.4912H109.307H110.989V31.8252L109.307 33.1592H104.599C103.59 33.1592 101.909 31.4917 101.909 29.1572C101.909 26.8228 103.254 25.1553 104.599 25.1553H113.343Z" fill="#575557"/>
<path d="M109.307 33.1592C108.074 33.1592 105.406 33.1592 104.599 33.1592C103.59 33.1592 101.909 31.4917 101.909 29.1572C101.909 26.8228 103.254 25.1553 104.599 25.1553H113.343V33.1592H111.325V28.1567H104.599V30.4912H109.307M109.307 33.1592V30.4912M109.307 33.1592L110.989 31.8252V30.4912H109.307" stroke="#575557" stroke-width="0.3"/>
<path d="M143.509 24.4414V32.8214H141.414V27.5839H134.431V30.028H139.319H141.065V31.4247L139.319 32.8214H134.431C133.383 32.8214 131.638 31.0755 131.638 28.6314C131.638 26.1872 133.034 24.4414 134.431 24.4414H143.509Z" fill="#FF8616"/>
<path d="M139.319 32.8214C138.039 32.8214 135.269 32.8214 134.431 32.8214C133.383 32.8214 131.638 31.0755 131.638 28.6314C131.638 26.1872 133.034 24.4414 134.431 24.4414H143.509V32.8214H141.414V27.5839H134.431V30.028H139.319M139.319 32.8214V30.028M139.319 32.8214L141.065 31.4247V30.028H139.319" stroke="#FF8616" stroke-width="0.3"/>
<path d="M84.8614 18.2947C85.693 18.2947 85.9009 19.5032 85.9009 20.1074V33.1591H77.2386V30.6213H83.8219V27.7209H76.8921V30.6213V33.1591C76.0836 33.1591 74.4667 32.3615 74.4667 29.1711C74.4667 25.9807 76.0836 24.9414 76.8921 24.8205H83.8219V20.1074C83.8219 19.5032 84.0298 18.2947 84.8614 18.2947Z" fill="#575557" stroke="#575557" stroke-width="0.5"/>
<path d="M117.813 18.2947C116.981 18.2947 116.773 19.5032 116.773 20.1074V33.1591H125.435V30.6213H118.852V27.7209H125.782V30.6213V33.1591C126.59 33.1591 128.207 32.3615 128.207 29.1711C128.207 25.9807 126.59 24.9414 125.782 24.8205H118.852V20.1074C118.852 19.5032 118.644 18.2947 117.813 18.2947Z" fill="#FF8616" stroke="#FF8616"/>
<path d="M90.6379 33.1591C89.8538 33.1591 89.44 32.69 89.3311 32.4554V27.5299C89.3311 24.9968 90.8557 24.129 91.618 24.0117H97.1717C98.1518 24.0117 98.4785 25.0672 98.4785 26.4745C98.4785 27.8818 97.6073 28.2336 97.1717 28.2336H91.9446V32.4554C91.8357 32.69 91.4219 33.1591 90.6379 33.1591Z" fill="#575557"/>
<path d="M145.359 30.954C145.359 29.5924 146.205 28.9665 146.722 28.7841C146.798 28.7571 146.879 28.7488 146.961 28.7488H149.538C150.09 28.7488 150.538 28.3444 150.538 27.7921V26.1762C150.538 23.824 152.264 22.9909 153.127 22.8684H155.988C156.054 22.8684 156.119 22.874 156.182 22.8901C156.822 23.0534 157.936 23.676 157.936 25.0736C157.936 26.4712 156.822 27.0937 156.182 27.257C156.119 27.2732 156.054 27.2787 155.988 27.2787H153.757C153.205 27.2787 152.757 27.7261 152.757 28.2783V29.4839C152.757 31.4522 150.727 32.681 149.579 33.106C149.479 33.1431 149.373 33.1592 149.267 33.1592H146.961C146.879 33.1592 146.798 33.1509 146.722 33.1239C146.205 32.9415 145.359 32.3156 145.359 30.954Z" fill="#FF8616"/>
<path d="M161.873 24.4414H170.253C171.929 26.3967 170.02 28.0494 168.856 28.6314V29.3297H169.904C170.253 29.3297 170.951 29.6789 170.951 31.0755C170.951 32.4722 170.02 32.8214 169.555 32.8214H162.222V29.3297H166.063L166.761 28.6314V27.5839H161.175V29.3297H161.873V32.8214C161.873 32.8214 159.08 32.4722 159.08 28.6314C159.08 25.5587 160.942 24.5578 161.873 24.4414Z" fill="#FF8616" stroke="#FF8616" stroke-width="0.3"/>
</svg>
