<svg xmlns="http://www.w3.org/2000/svg" xmlns:xlink="http://www.w3.org/1999/xlink" viewBox="0 0 1920 1136"><defs><style>.cls-1{isolation:isolate;}.cls-2,.cls-3,.cls-4,.cls-5{mix-blend-mode:multiply;}.cls-2{fill:url(#radial-gradient);}.cls-3{fill:url(#radial-gradient-2);}.cls-4{fill:url(#radial-gradient-3);}.cls-5{fill:url(#radial-gradient-4);}.cls-6{fill:url(#linear-gradient);}.cls-21,.cls-24,.cls-31,.cls-42,.cls-7,.cls-9{fill:#231f20;}.cls-21,.cls-23,.cls-31,.cls-7,.cls-9{mix-blend-mode:overlay;}.cls-8{fill:url(#linear-gradient-2);}.cls-9{opacity:0.49;}.cls-10{fill:url(#linear-gradient-3);}.cls-11{fill:url(#linear-gradient-4);}.cls-12{fill:url(#linear-gradient-5);}.cls-13{fill:#ffb3a0;}.cls-14{fill:url(#linear-gradient-6);}.cls-15{fill:url(#linear-gradient-7);}.cls-16{fill:url(#linear-gradient-8);}.cls-17{fill:url(#linear-gradient-9);}.cls-18{fill:url(#linear-gradient-10);}.cls-19,.cls-45,.cls-46,.cls-47,.cls-48,.cls-50,.cls-51,.cls-52{fill:#fff;}.cls-20{fill:url(#linear-gradient-11);}.cls-21,.cls-23{opacity:0.66;}.cls-22{fill:url(#linear-gradient-12);}.cls-25{fill:url(#linear-gradient-13);}.cls-26{fill:url(#linear-gradient-14);}.cls-27{fill:url(#linear-gradient-15);}.cls-28{fill:url(#linear-gradient-16);}.cls-29{fill:url(#linear-gradient-17);}.cls-30{fill:url(#linear-gradient-18);}.cls-31{opacity:0.62;}.cls-32{mix-blend-mode:darken;opacity:0.15;}.cls-33{fill:url(#linear-gradient-19);}.cls-34{fill:url(#linear-gradient-20);}.cls-35{fill:url(#linear-gradient-21);}.cls-36{fill:url(#linear-gradient-22);}.cls-37{fill:url(#linear-gradient-23);}.cls-38{fill:url(#linear-gradient-24);}.cls-39{fill:url(#linear-gradient-25);}.cls-40{fill:url(#Yellow);}.cls-41{fill:url(#linear-gradient-26);}.cls-42{opacity:0.21;}.cls-43{fill:url(#linear-gradient-27);}.cls-44{fill:none;stroke:#fff;stroke-miterlimit:10;}.cls-45,.cls-47{font-size:18px;}.cls-45,.cls-47,.cls-51{font-family:OpenSans, Open Sans;}.cls-45{letter-spacing:0.1em;}.cls-46{font-size:21px;font-family:FontAwesome5FreeSolid;}.cls-47{letter-spacing:0.1em;}.cls-48{font-size:22.64px;font-family:FontAwesome5BrandsRegular;}.cls-49{fill:url(#linear-gradient-28);}.cls-50{font-size:16.42px;font-family:OpenSans-Bold, OpenSans Bold;}.cls-50,.cls-52{font-weight:700;}.cls-51{font-size:19.16px;}.cls-52{font-size:100px;font-family:Ubuntu-Bold, Ubuntu Bold;}.cls-53{letter-spacing:-0.07em;}.cls-54{letter-spacing:-0.08em;}</style><radialGradient id="radial-gradient" cx="945.94" cy="-93.54" r="1400.78" gradientTransform="translate(0 1.87)" gradientUnits="userSpaceOnUse"><stop offset="0.22" stop-color="#5eccff"/><stop offset="0.32" stop-color="#5ac5fb"/><stop offset="0.45" stop-color="#4fb3ee"/><stop offset="0.62" stop-color="#3e94da"/><stop offset="0.8" stop-color="#2569bd"/><stop offset="0.99" stop-color="#063399"/><stop offset="1" stop-color="#043097"/></radialGradient><radialGradient id="radial-gradient-2" cx="1620.74" cy="329.44" r="648.73" gradientTransform="matrix(1, 0, 0, 1, 0, 0)" xlink:href="#radial-gradient"/><radialGradient id="radial-gradient-3" cx="692.72" cy="-91.38" r="1266.66" gradientTransform="matrix(1, 0, 0, 1, 0, 0)" xlink:href="#radial-gradient"/><radialGradient id="radial-gradient-4" cx="1500.54" cy="862.91" r="78.2" gradientTransform="matrix(1, 0, 0, 1, 0, 0)" xlink:href="#radial-gradient"/><linearGradient id="linear-gradient" x1="939.51" y1="644.42" x2="1706.69" y2="644.42" gradientUnits="userSpaceOnUse"><stop offset="0" stop-color="#0093d8"/><stop offset="0.1" stop-color="#0796d9"/><stop offset="0.25" stop-color="#1b9ddc"/><stop offset="0.43" stop-color="#3ca9e0"/><stop offset="0.63" stop-color="#69bbe6"/><stop offset="0.85" stop-color="#a2d0ee"/><stop offset="1" stop-color="#cce0f4"/></linearGradient><linearGradient id="linear-gradient-2" x1="939.94" y1="874" x2="1661.5" y2="874" gradientUnits="userSpaceOnUse"><stop offset="0" stop-color="#c4ff3f"/><stop offset="0.93" stop-color="#78cf06"/></linearGradient><linearGradient id="linear-gradient-3" x1="1444.24" y1="836.15" x2="1540.48" y2="836.15" gradientUnits="userSpaceOnUse"><stop offset="0" stop-color="#00226a"/><stop offset="0.93" stop-color="#27aae1"/></linearGradient><linearGradient id="linear-gradient-4" x1="1093.06" y1="885.59" x2="1144.3" y2="885.59" xlink:href="#linear-gradient-3"/><linearGradient id="linear-gradient-5" x1="1392.58" y1="492.21" x2="1570.56" y2="492.21" gradientUnits="userSpaceOnUse"><stop offset="0" stop-color="#be9c48"/><stop offset="0.5" stop-color="#c9ac68"/><stop offset="1" stop-color="#dbc79a"/></linearGradient><linearGradient id="linear-gradient-6" x1="1502.05" y1="833.78" x2="1508.41" y2="833.78" gradientUnits="userSpaceOnUse"><stop offset="0" stop-color="#baf4ff"/><stop offset="1" stop-color="#fff"/></linearGradient><linearGradient id="linear-gradient-7" x1="1495.24" y1="830.47" x2="1502.42" y2="830.47" xlink:href="#linear-gradient-6"/><linearGradient id="linear-gradient-8" x1="1508.8" y1="836.3" x2="1515.05" y2="836.3" xlink:href="#linear-gradient-6"/><linearGradient id="linear-gradient-9" x1="1444.24" y1="845.32" x2="1540.48" y2="845.32" xlink:href="#linear-gradient-6"/><linearGradient id="linear-gradient-10" x1="1516.56" y1="836.88" x2="1522.43" y2="836.88" xlink:href="#linear-gradient-6"/><linearGradient id="linear-gradient-11" x1="1117.34" y1="781.43" x2="1500.97" y2="781.43" xlink:href="#linear-gradient-3"/><linearGradient id="linear-gradient-12" x1="1291.2" y1="561.2" x2="1348.34" y2="561.2" xlink:href="#linear-gradient-3"/><linearGradient id="linear-gradient-13" x1="1237.25" y1="639.13" x2="1358.83" y2="639.13" xlink:href="#linear-gradient-3"/><linearGradient id="linear-gradient-14" x1="1232.9" y1="613.05" x2="1353.36" y2="613.05" xlink:href="#linear-gradient-3"/><linearGradient id="linear-gradient-15" x1="1428.72" y1="535.42" x2="1466.64" y2="535.42" xlink:href="#linear-gradient-6"/><linearGradient id="linear-gradient-16" x1="1260.52" y1="559.56" x2="1330.61" y2="559.56" xlink:href="#linear-gradient-6"/><linearGradient id="linear-gradient-17" x1="1246.96" y1="539.05" x2="1327.91" y2="539.05" xlink:href="#linear-gradient-3"/><linearGradient id="linear-gradient-18" x1="1255.32" y1="553.82" x2="1283.58" y2="553.82" xlink:href="#linear-gradient-6"/><linearGradient id="linear-gradient-19" x1="1116.34" y1="884.54" x2="1139.45" y2="884.54" xlink:href="#linear-gradient-6"/><linearGradient id="linear-gradient-20" x1="1119.83" y1="890.73" x2="1140.18" y2="890.73" xlink:href="#linear-gradient-6"/><linearGradient id="linear-gradient-21" x1="1093.06" y1="892.96" x2="1135.59" y2="892.96" xlink:href="#linear-gradient-6"/><linearGradient id="linear-gradient-22" x1="1117.61" y1="878.94" x2="1140.44" y2="878.94" xlink:href="#linear-gradient-6"/><linearGradient id="linear-gradient-23" x1="1065.94" y1="795.23" x2="1074.81" y2="795.23" xlink:href="#linear-gradient-6"/><linearGradient id="linear-gradient-24" x1="1040.58" y1="799.98" x2="1049.45" y2="799.98" xlink:href="#linear-gradient-6"/><linearGradient id="linear-gradient-25" x1="1052.62" y1="797.44" x2="1061.5" y2="797.44" xlink:href="#linear-gradient-6"/><linearGradient id="Yellow" x1="1039.2" y1="712.91" x2="1075.58" y2="712.91" gradientUnits="userSpaceOnUse"><stop offset="0" stop-color="#fff7a9"/><stop offset="0.5" stop-color="#fff100"/><stop offset="1" stop-color="gold"/></linearGradient><linearGradient id="linear-gradient-26" x1="1606.76" y1="390.72" x2="1639.1" y2="390.72" gradientTransform="translate(1748.64 -1273.84) rotate(80.78)" xlink:href="#linear-gradient-6"/><linearGradient id="linear-gradient-27" x1="1798.92" y1="106.67" x2="1857.74" y2="106.67" gradientTransform="translate(957.86 -1504.68) rotate(58.28)" xlink:href="#linear-gradient-2"/><linearGradient id="linear-gradient-28" x1="597.47" y1="462.06" x2="281.24" y2="796.64" xlink:href="#linear-gradient-2"/></defs><g class="cls-1"><g id="BG"><rect class="cls-2" width="1920" height="1136"/><path class="cls-3" d="M1383.12,610.09C1368.63,626.9,1357.9,646.64,1347,666c-10.13,17.9-30.32,35.7-3.5,45,17.91,6.19,56.71-12,77.15-12.93,55-2.55,111.17,14,154.93,47.71,7.73,5.95,15.36,12.77,18.85,21.88,2.59,6.79,2.65,14.27,2.15,21.52a153.3,153.3,0,0,1-24.27,72.63C1673.63,866,1817.51,887.7,1892,964c9.3,9.53,18.7,18.8,28,28.06V382S1621,334,1383.12,610.09Z"/><path class="cls-4" d="M1284.82,1015.71l107.53-60.45c49.58-27.91-50.2-34.28-67.27-31C1139.5,959.59,908,926.75,771,785.85c-83.14-85.5-123.64-205.6-132.58-324.52-8.21-109.16,6.42-221.06,29.34-327.74C672.27,112.6,697.57,0,720.57,0H0V896.08C34.05,965.3,76.73,1026.47,124,1093c11.64,16.33,24.25,29.4,37.63,43h881.79s116.39-50,164.44-77Z"/><path class="cls-5" d="M1438,912a51.79,51.79,0,0,1-4.63,4.73c11.16-1.37,22.37-2.64,33.63-3.73,25-3,47-11,70-21a94.19,94.19,0,0,0,32.71-25.08C1531.39,870.15,1494.15,882,1458,896,1450,899,1443,905,1438,912Z"/><rect class="cls-2" width="1920" height="1136"/></g><g id="MAIN_OBJECT" data-name="MAIN OBJECT"><path class="cls-6" d="M1114.57,991.78s511.61,48.43,544.9-154.39-163-217.37-129.74-268.83,250.83-218.56,150.94-264-336,36.33-523.72,175.58S800,944.54,1114.57,991.78Z"/><path class="cls-7" d="M1031.38,886.21s-5.7-121.73,146.46-154.07S1470.76,608.5,1470.76,608.5s-435.57,97-311.94,30.44S1602,433.51,1602,433.51s-234,51.36-214.94-7.6c12.17-37.71,138.35-96.42,228.46-133.85-117.16-2-304.24,73.6-458.58,188.11-170.69,126.64-326.15,407-116.28,492.27Z"/><path class="cls-8" d="M1558.89,781.59l-36.77-27.89s14,21.55,7.61,19-26.63-14-26.63-14l6.34,12.68-20.29-5.07,7.61,10.14-87.5-10.14-41.84-15.22s19,15.22,15.21,16.49-43.11-8.88-43.11-8.88l8.88,11.41s-82.43-2.53-175,12.68L1158.19,760l2.53,21.55-31.7-2.53,21.56,10.14s-27.46.71-39.88.54a113.84,113.84,0,0,1,13.25,4.53L993.34,836.12,976.86,813.3s-5.07,12.68,2.53,21.55-34.23-16.48-34.23-16.48a23,23,0,0,0,10.14,20.29c6.18,4.12-4.38,4.14-15.36,3.3,4.94,73.24,54.52,131.78,174.63,149.82,0,0,511.61,48.43,544.9-154.39.83-5,1.48-9.92,2-14.73A294.19,294.19,0,0,0,1558.89,781.59Z"/><path class="cls-9" d="M1432.09,832.32l15.09,5.28s-34.43-8.45-66.77-6.55-52.3,1.9-52.3,1.9l17.12,6.66s-37.09-1-34.24-1,13.31,6.65,13.31,6.65-35.18,3.81-54.21,1.91-27.58-10.47-27.58-10.47l6.66,12.37h-29.48l16.17,5.7s-125.54,19-129.34,19-31.39-1.9-28.54-1l2.86,1-56.11,7.61s9.51,4.76,6.65,4.76-39.94,2.85-39.94,2.85,22.83,3.81,18.07,3.81-36.14,2.85-36.14,2.85,25.68,14.26,71.33,0l-2.85,8.56s19-6.66,32.33-5.71a66.48,66.48,0,0,1,22.83,5.71l-24.73,1.9,33.28,7.61-17.11,3.8s16.16,3.81,45.65,4.76a372.2,372.2,0,0,0,52.3-1.9l-25.68-7.61s35.19-1.91,51.36.95,32.34,6.66,29.48,5.7-15.21-8.56-15.21-8.56l24.72,3.81-13.31-6.66,20.92,3.81s-14.26-17.12-34.24-15.22c0,0,54.21-9.51,86.55-2.85a203.73,203.73,0,0,0,60.87,2.85L1343.32,891s23.78-5.7,39,.95c0,0-1.91-10.46-18.07-11.41,0,0,36.14-12.36,60.86-8.56s37.09,1.9,37.09,1.9l-26.63-12.36,40,2.85-4.76-9.51,33.29,8.56-10.46-6.65,37.09,6.65-8.56-5.7h31.38l3.81-12.37s-26.63-15.21-28.53-15.69-25.21-4.28-25.21-4.28l2.59,4.5Z"/><path class="cls-10" d="M1483.43,817.77l12.06,1.51s3,8.29,14.32,12.06,21.1-3.77,27.13,6.78,3,12.81.75,12.06-3.77,1.51-18.84,3.77-27.88-.76-31.65-2.26-18.09,2.26-25.63,1.5a109.3,109.3,0,0,1-17.33-3.76l12.06-18.84s-9-15.08,3.77-12.82A67.17,67.17,0,0,0,1483.43,817.77Z"/><path class="cls-11" d="M1144.3,875.8s-6,7.54-5.27,12.81,2.26,12.82,0,18.09-11.31,9-11.31,9-17.33-8.29-23.36-13.56-11.3-12.06-11.3-18.84,20.43-24.71,20.43-24.71a94.36,94.36,0,0,1,9-3.17C1125.46,854.7,1144.3,875.8,1144.3,875.8Z"/><path class="cls-12" d="M1546.1,406.05l-95.94,97.21a36,36,0,0,1,3.85,7.47l-59.75,60.45a5.8,5.8,0,0,0,8.25,8.16l59.16-59.86a47.08,47.08,0,0,0,10.36,5l96.2-96.58c5.43-5.49.38-10.53-5.11-16l-2.25-2.22C1555.38,404.31,1551.53,400.56,1546.1,406.05Z"/><path class="cls-13" d="M1329.77,546.21c1-.24,23.3,2.38,23.3,2.38s17.6-4.76,26.16-4.28,42.79-5.23,44-7.61,3.81-7.84,4.76-8.08,8.32.24,10.22,1-.24,10.22-.24,10.22-3.09,2.38-4.51,0a13.22,13.22,0,0,1-1.67-5L1419.65,546l-7.14,7.37s-47.55,17.84-54,18.79-6.42-.48-10.46,0-12.13,2.38-12.13,2.38Z"/><path class="cls-14" d="M1508.41,830.82c-.79-.31-1.54-.63-2.25-1-1.68,2.66-4.71,7.63-4,7.86S1506.58,833.22,1508.41,830.82Z"/><path class="cls-15" d="M1502.42,827.58a22.55,22.55,0,0,1-2-1.6c-2.66,3.29-6.18,8-5,8.87C1496.91,835.8,1500.63,830.39,1502.42,827.58Z"/><path class="cls-16" d="M1510.71,839.29c1-1.4,3-4.67,4.34-6.91-.65-.06-1.31-.14-2-.25l-4.28,7.79S1509.12,841.51,1510.71,839.29Z"/><path class="cls-17" d="M1535.33,835.87a15.62,15.62,0,0,0-4.33,5.64c-4.13,8.56-29.8,7.61-37.41,4.75s-10.15-4.43-18.07-2.53c-5.25,1.26-16.19-3.74-23-7.26l-8.29,13a109.3,109.3,0,0,0,17.33,3.76c7.54.76,21.86-3,25.63-1.5s16.58,4.52,31.65,2.26,16.58-4.52,18.84-3.77,5.28-1.51-.75-12.06A14.63,14.63,0,0,0,1535.33,835.87Z"/><path class="cls-18" d="M1517.36,841.19l5.07-8.87-2.19.12C1518.31,836.15,1515.05,842.81,1517.36,841.19Z"/><path class="cls-13" d="M1324.78,624.2s33-20.23,40.44-21.64c23.75-4.52,79.1-45.09,87.8-53.8l-16.61-11.86s-9.49,12.66-22.94,16.61-40.34,11.08-51.42,19.78-23.73,6.33-34.81,8.7S1324.78,624.2,1324.78,624.2Z"/><path class="cls-19" d="M1356,580c6.34-1.58,11.1-7.6,15.54-9.82s39.94-12.68,47.55-17.12a26.41,26.41,0,0,0,7.88-6.78,41.17,41.17,0,0,1-13.5,7.26c-13.45,4-40.34,11.08-51.42,19.78-5.87,4.62-12.2,6.11-18.49,6.85C1348,580.54,1353,580.73,1356,580Z"/><path class="cls-19" d="M1334.2,581a60.41,60.41,0,0,0-7,1c-8.29,1.78-5.54,24.58-3.64,35.9Z"/><path class="cls-19" d="M1354.26,550.73s14.27-4,18.78-4.28,22.83,0,22.83,0l-7.37-1.66s23.54-2.62,28.29-3.81a5.23,5.23,0,0,0,4-3.06c-8.17,2.69-34.22,6.8-41.53,6.39-8.56-.48-26.16,4.28-26.16,4.28L1348,548Z"/><path class="cls-19" d="M1332.39,547.16l1.85-.64a42.14,42.14,0,0,0-4.47-.31l1.09,5Z"/><path class="cls-7" d="M1444.37,548.59c-8.56,11.41-57.06,27.82-59.44,30.19s18.31-3.8,18.31-3.8a66.85,66.85,0,0,1-12.36,10.94c-7.14,4.75-22.35,7.37-37.09,10.22-7.88,1.53-21.18,5.36-31.87,8.6a169.82,169.82,0,0,0,2.86,19.46s33-20.23,40.44-21.64c23.75-4.52,79.1-45.09,87.8-53.8l-5.3-3.78A22,22,0,0,0,1444.37,548.59Z"/><path class="cls-20" d="M1268.92,702.6c-3.16,1-10.55-8.44-16.87,23.2s-28.48,78.05-40.09,86.49-16.87-2.11-43.24,14.77a228.74,228.74,0,0,1-50.63,24.26s-4.22,16.87,7.38,21.09,16.88,16.88,21.1,14.77,30.59-17.93,51.68-24.26,64.34-19,76-41.14,34.09-68.32,58.35-82c0,0,62.17-6.33,81.15,0s29.26-.24,31.37,9.26-6.33,9.49,1,30.58,7.38,43.25,4.22,50.63l-3.16,7.38s10.54,11.61,25.31,5.28S1501,815.45,1501,815.45s-10.55-3.16-12.66-29.53-2.11-79.11-19-85.43-93.88-29.54-126.58-24.26S1268.92,702.6,1268.92,702.6Z"/><path class="cls-21" d="M1136,863.38c3.8-9.51,18.38-21.55,34.24-27.89s20.92.63,35.5,1.9-5.71-7.61-4.44-12.68,8.88-6.34,20.93-1.27,19.65.63,19.65.63-18.39-12.68-14.58-18.38,11.41-3.81,24.09-10.15,1.27-8.87-1.27-17.12,7-27.26,26.63-29.16,27.9-10.15,27.9-10.15-11.41,2.54-20.29,1.27S1261.53,729,1261.53,729s25.37,4.44,45.65-1.9c14.35-4.49,37.24-34,49-51.58a75.26,75.26,0,0,0-13.41.74c-32.69,5.27-73.83,26.37-73.83,26.37-3.16,1-10.55-8.44-16.87,23.2s-28.48,78.05-40.09,86.49-16.87-2.11-43.24,14.77a228.74,228.74,0,0,1-50.63,24.26s-4.22,16.87,7.38,21.09,16.88,16.88,21.1,14.77l1.14-.6C1142.41,881.09,1133.25,870.25,1136,863.38Z"/><path class="cls-7" d="M1434.62,534.56c-.95-2.38-2.37-2.38-4.75-.95s-10.94,11.18-16.64,12.84-35,5.94-38.76,7.61,8.32,1,6.66,3.56-17.83,4.76-21.16,4.28-.24-4.75-4-5.94-.48,1.9-7.14,3.09c-4,.71-11.31-.88-16.69-2.17l3.85,17.63s8.09-1.91,12.13-2.38,4,1,10.46,0,54-18.79,54-18.79l7.14-7.37,12.12-11.17a13.22,13.22,0,0,0,1.67,5c1.42,2.38,4.51,0,4.51,0l0-.16A15.24,15.24,0,0,1,1434.62,534.56Z"/><path class="cls-22" d="M1328.7,540.9c2.11,0,15.83,7.38,19,17.93s-6.33,22.68-6.33,22.68-52.21-11.6-50.1-11.08,7.38-17.4,13.71-22.67S1328.7,540.9,1328.7,540.9Z"/><g class="cls-23"><path class="cls-24" d="M1291.26,570.43s0,0,0,0S1291.18,570.41,1291.26,570.43Z"/><path class="cls-24" d="M1347.76,568.13c-1.6-6.26-4.79-13.65-11.09-16.37,0,0,5.7,6.34,5.39,11.09,0,0-10.46-11.72-14.9-13.63,0,0,6.51,6.7,1.58,7.29-4,.49-22.09-1.27-28.83-2-4,7.09-7.1,16.14-8.62,15.87,2,.39,50.07,11.08,50.07,11.08A38.85,38.85,0,0,0,1347.76,568.13Z"/></g><path class="cls-25" d="M1263.65,565.48s-27.43,16.87-26.37,45.35,8.44,57,15.82,73.83-7.38,17.94,2.11,26.37,38,23.21,67.5,11.61,40.09-41.14,34.81-46.41-10.55-7.39-14.77-25.32,2.11-79.1-10.54-87.54S1309,540.16,1263.65,565.48Z"/><path class="cls-21" d="M1255.21,711l.42.36c15.68,6.16,39.38,13.24,52,6,0,0-35.19-4.76-33.76-10,0,0,31.86,7.14,43.27-.47s-1.45-2.61-1.45-2.61-33.26.23-44.67-21.17,22.82,6.66,45.17,8.56,27.58-7.13,27.58-7.13-17.59,8.56-40.89-8.56-26.16-33.29-26.16-33.29l66.1,25.2s-25.2-31.86-26.63-40.89,14.3-39.9,13.31-49c-.57-5.26-5.43-9.85-9.42-12.78,2.58,2.27,4.65,5.54,2.29,9.45-4.6,7.62-21.87,14.27-29,11.89s-33.76-10-33.76-10,13.32,4.27,13.32,10.93c0,3.64-16.89,4.58-32.21,4.68a43.39,43.39,0,0,0-3.46,18.57c1,28.48,8.44,57,15.82,73.83S1245.72,702.6,1255.21,711Z"/><path class="cls-26" d="M1244.73,586.31c-3.45,2.85-20.6,23.46-6.08,50.27,6.76,12.48,69.61,15,114.71-13.44,0,0-17.63-33-11.3-42.53,0,0-54.36,11.67-67,6.14S1256.6,576.56,1244.73,586.31Z"/><path class="cls-21" d="M1250.44,587.9c6.66-3.17,13.31.63,13.31.63s-11.09,1-20.28,15.22,1,28.53,1,28.53c-4.12-26.63,36.14-37.72,36.14-37.72-8.56,7.6-4.13,22.82-4.13,22.82,4.44-14.26,20.61-23.77,20.61-23.77a26.17,26.17,0,0,0-6,9.51c-2.22,6,4.12,32,4.12,32s-2.22-10.14,5.39-30.11c3.86-10.15,13.45-16.68,22-20.74-16.92,2.86-39.87,5.82-47.53,2.47-12.66-5.54-18.44-10.19-30.31-.44-1.91,1.58-8,8.61-10.63,19.13C1239.29,598.59,1246.49,589.78,1250.44,587.9Z"/><path class="cls-27" d="M1434.59,539.07s2.94-5.65,4.81-9.42a12.79,12.79,0,0,1,5.07-5.38s-6.41,6.73-8.81,4.84-3.2-2.15-1.07-4.84,9.35-10.22,13.35-9.68,8.82,9.41,9.62,9.41,2.13-5.38,4.27-5.38,4.81,9.69,4.81,12.38,0,9.15-2.94,10.76-13.35,10-13.35,10l-1.07,4.58s-9.88-7-13.09-8.61.54-6.73-.26-6.73-4.54,3.5-4.54,3.5l-2.67-1.08Z"/><path class="cls-13" d="M1315.86,541.22l1.05,9.49a15.84,15.84,0,0,0,1.59,8.44c2.1,3.69.52,17.93.52,17.93s0,7.38-5.27,9-14.24,4.75-21.62,2.11-20-11.6-20-11.6l-1.06-4.22s-5.8,2.64-8.44-2.63-9-14.24-3.69-15.83l5.28-1.58s-6.33-13.18,2.11-23.2,15.72-10,30-9.51S1310.58,529.09,1315.86,541.22Z"/><path class="cls-7" d="M1309.8,584.73c-4.75,1.66-11.17.71-14.5,0s-7.61-8.08-7.37-14.27,8.79-16.16,12.84-18.07,4.28,2.62,11.88,3.81a5.84,5.84,0,0,0,4.49-.92,18,18,0,0,1-.23-4.57l-1.05-9.49c-5.28-12.13-5.37-21.11-19.61-21.64s-21.52-.51-30,9.51-2.11,23.2-2.11,23.2l-5.28,1.58c-5.27,1.59,1.06,10.55,3.69,15.83s8.44,2.63,8.44,2.63l1.06,4.22s12.65,9,20,11.6,16.34-.52,21.62-2.11a6.58,6.58,0,0,0,4-3.68C1315.58,582.94,1312.47,583.8,1309.8,584.73Z"/><path class="cls-28" d="M1327.43,562.37l-2.38-7.64c.44-2.09-.59-4.31-3.07-6.63l-3.08-9.9-1.81.56,3.23,10.4.19.17a8.51,8.51,0,0,1,2.59,3.53l0,1.92c-2.62,7-30.69,9.51-42.19,9.93l-4.5-12.36-1.79.66,4.58,12.58-11.4.37-5.53-12.42-1.73.78,6,13.59,13.55-.45,4.91,13.47.69,0c4.19-.13,41.06-1.57,44.61-11.21C1331.16,567.41,1330.19,565,1327.43,562.37Zm1.12,6.62c-2.57,7-30.68,9.57-42.19,10l-4.23-11.58h0l0-.84c8.07-.37,35.33-2.14,41.67-9.47l2,6.28.19.17C1328.24,565.62,1329.11,567.45,1328.55,569Z"/><path class="cls-29" d="M1326.84,534c-.87-.75-9.83-6-9.83-6s-7.45-28.61-48.5-15.53c-39.15,13.31-13,54.21-13,54.21s5.07,4.44,5.71,1.27-3.17-7-.32-10.78S1337.62,543.2,1326.84,534Z"/><path class="cls-30" d="M1282.22,546.69c1.52,3.18,1.85,5.88.55,7.92L1258.05,561c-2.49-1.11-3.4-3.32-2.22-7C1255.83,554,1262.64,547.32,1282.22,546.69Z"/><path class="cls-31" d="M1259.9,559.49a6.86,6.86,0,0,1-.58-3.29c1-5.07,7.6-4.44,15.85-6.66,5.41-1.46,8.76,0,10.43,1.1l.94-.21a24.4,24.4,0,0,1,0-6.28c.63-6,13.31-8.88,13.31-8.88s-34.87,2.22-33.6-9.82c.73-6.9,7-12.22,12.33-15.53a78.93,78.93,0,0,0-10.11,2.53c-39.15,13.31-13,54.21-13,54.21s5.07,4.44,5.71,1.27C1261.72,565.41,1259.43,562.49,1259.9,559.49Z"/><path class="cls-19" d="M1326.84,534c-.87-.75-9.83-6-9.83-6s-4.24-16.24-23.9-18.65c8.25,4,17.28,10.19,20.73,19.29,0,0,14.27,5.39,9.83,8.56-1.8,1.28-4.81,3.57-7.74,5.82C1324.93,540.07,1330.33,537,1326.84,534Z"/><path class="cls-13" d="M1325.49,544.79"/><g class="cls-32"><path class="cls-24" d="M1457.07,523.61a.64.64,0,0,0,.49.39C1457.46,524,1457.29,523.86,1457.07,523.61Z"/><path class="cls-24" d="M1461.83,518.62c-2.14,0-3.47,5.38-4.27,5.38,2.15.2,4.35,2.48,3.62,6.12s-.48,1.69-3.13-1.46-.24,4.85-2.4,8.49-2.65,2.91-6.26.24.48,4.61.24,7.53-4.34-1.7-8.91-2.92,2.41,7.28,2.41,7.28l-1,2.12c3.54,2.37,7.11,4.89,7.11,4.89l1.07-4.58s10.41-8.34,13.35-10,2.94-8.07,2.94-10.76S1464,518.62,1461.83,518.62Z"/></g><path class="cls-19" d="M1342.83,651.19c-.94,12.22,10,29.12,10,29.12,3.21,12.1-13.3,30.06-21.81,38.33,23.17-13.29,31.25-37.67,26.5-42.41C1352.28,671,1347,668.85,1342.83,651.19Z"/><path class="cls-19" d="M1322.63,637.37a138.33,138.33,0,0,0,30.73-14.23s-12.73-23.87-12.67-36.86c-1.84,6.62-1.28,17.12,6.44,33.64C1347.13,619.92,1344.53,624.65,1322.63,637.37Z"/><path class="cls-21" d="M1459.83,835.8c0-3.8,20.44-14.74,20.44-14.74s-16.64-4.75-19-11.41,4.76-28.53-2.37-39.94-8.56-13.32-4.28-19,20.92-33.76,10.46-25.2-14.27,18.55-16.17,13.32,12.84-26.63,3.33-20.93-11.41,13.32-21.88,16.65-39.46,0-36.61-1.9,41.84-20,35.19-19-63.25,18.07-73.71,19.5S1400.86,705,1400.86,705s-77.51,32.33-101.28,50.88S1272,778.27,1272,778.27s31.86-18.07,28.53-13.32-25.2,38.52-25.2,38.52l12-6.51c12.13-22.06,28.25-47.6,45.26-57.21,0,0,62.17-6.33,81.15,0s29.26-.24,31.37,9.26-6.33,9.49,1,30.58,7.38,43.25,4.22,50.63l-3.16,7.38s10.54,11.61,25.31,5.28c.5-.22,1-.45,1.5-.7C1467.22,840.34,1459.83,837.86,1459.83,835.8Z"/><path class="cls-19" d="M1253.93,836.12c-7.61,7.61-60.24,24.73-72.92,29.16-7.53,2.64-16.6,10-22.74,15.48,10.63-5.76,26.4-13.77,40-17.84,21.1-6.33,64.34-19,76-41.14,1.29-2.46,2.72-5.23,4.26-8.21C1269.77,821.36,1258.38,831.67,1253.93,836.12Z"/><path class="cls-19" d="M1488.31,785.92c-2.11-26.37-2.11-79.11-19-85.43-12.08-4.53-55-17.71-90.36-22.9a33.52,33.52,0,0,0,6.2,4.46c6.34,3.17,79.89,19,83.06,22.83s9.51,8.87,10.14,29.16,7,68.48,10.78,74.82l3.8,6.34-8.57,19.66A110.44,110.44,0,0,0,1501,815.45S1490.42,812.29,1488.31,785.92Z"/><path class="cls-33" d="M1139.45,891.45c-.15-1-.3-2-.42-2.84,0-.14,0-.29,0-.44-4.41-4.16-13.14-11-22.66-10.52C1116.34,877.65,1130.55,881.73,1139.45,891.45Z"/><path class="cls-34" d="M1140.18,898.43c0-1.22-.14-2.43-.28-3.63-4.12-4.36-12.24-11.76-20.07-11.76C1119.83,883,1134,891.14,1140.18,898.43Z"/><path class="cls-35" d="M1128.71,897c-8.88-4.44-21.88-5.71-26.32-10.15-3-3-1.83-11.35-.76-16.66-4.5,4.89-8.57,10.13-8.57,13.16,0,6.78,5.27,13.56,11.3,18.84s23.36,13.56,23.36,13.56a34.49,34.49,0,0,0,7.87-4.77C1135.43,906.32,1134.18,899.72,1128.71,897Z"/><path class="cls-36" d="M1117.61,873.84s11.46.57,21.72,11.28a18.1,18.1,0,0,1,1.11-3c-4.4-3.43-10.23-7.51-14.27-8.56C1118.88,871.63,1117.61,873.84,1117.61,873.84Z"/><path class="cls-37" d="M1074.81,877c0,3.39-8.87,3.39-8.87,0V710.9h8.87Z"/><path class="cls-38" d="M1049.45,887.79c0,3.38-8.87,3.38-8.87,0V709.63h8.87Z"/><path class="cls-39" d="M1061.5,882.09c0,3.38-8.88,3.38-8.88,0V710.27h8.88Z"/><path class="cls-40" d="M1049.45,718.75h-9.51s-1.66-10.23,0-11.42,35,1.91,35.43,2.62,0,8.32,0,8.32l-9.75-.48.24-5.46-3.81-.48v6.42h-9.51l-.23-6.66-3.33-.23Z"/><path class="cls-19" d="M1451.74,504.84s95.58-97.48,100.34-97.48c3.21,0,12.08,7.39,17.49,12.18-1.33-2.5-3.83-5-6.45-7.58l-2.25-2.22c-5.48-5.43-9.34-9.18-14.77-3.69l-95.94,97.21a21.69,21.69,0,0,1,1.16,1.84Z"/><circle class="cls-41" cx="1622.93" cy="390.72" r="16.17" transform="translate(977.29 1930.1) rotate(-80.78)"/><path class="cls-42" d="M1629.27,403.08A16.16,16.16,0,0,1,1618,375.31a16.17,16.17,0,1,0,16.16,27A16.27,16.27,0,0,1,1629.27,403.08Z"/></g><g id="NAVIGATION_AREA" data-name="NAVIGATION AREA"><circle class="cls-43" cx="1828.33" cy="106.67" r="29.41" transform="matrix(0.53, -0.85, 0.85, 0.53, 776.38, 1605.86)"/><line class="cls-44" x1="1730.06" y1="134.08" x2="1350.02" y2="134.08"/><line class="cls-44" x1="187" y1="1030" y2="1030"/><text class="cls-45" transform="translate(476.4 116.21)">HOME</text><text class="cls-45" transform="translate(636.22 116.21)">ABOUT</text><text class="cls-45" transform="translate(803.18 116.21)">PRODUCTS</text><text class="cls-45" transform="translate(1008.22 116.21)">SERVICE</text><text class="cls-45" transform="translate(1191.41 116.21)">CONTACT</text><text class="cls-46" transform="translate(1695.21 113.92)"></text><text class="cls-46" transform="translate(1820.03 112.29)"></text><text class="cls-47" transform="translate(1370.24 113.92)">SEARCH...</text><text class="cls-48" transform="translate(252.68 1029.56)"></text><text class="cls-48" transform="translate(358.17 1029.56)"></text><text class="cls-48" transform="translate(458.12 1029.56)"></text></g><g id="BANNER_TEXT" data-name="BANNER TEXT"><rect class="cls-49" x="218.05" y="726.18" width="209.97" height="52.49" rx="25.37"/><text class="cls-50" transform="translate(274.84 757.05)">READ MORE</text><text/><text class="cls-51" transform="translate(225.22 634.88)">Watch all the top tier cricket from around the world in <tspan x="0" y="32.85">High Definition on this site.</tspan></text><text class="cls-52" transform="translate(222.83 427.32)"><tspan class="cls-53">T</tspan><tspan class="cls-54" x="42.2" y="0">A</tspan><tspan class="cls-53" x="95.7" y="0">T</tspan><tspan x="137.9" y="0">A IPL</tspan><tspan x="0" y="99">2022</tspan></text></g></g></svg>