<svg width="25" height="25" viewBox="0 0 25 25" fill="none" xmlns="http://www.w3.org/2000/svg">
<path d="M11.6668 17.2917C12.0835 17.8125 12.9168 17.8125 13.3335 17.2917L19.5835 10.7292C20.1043 10.2083 19.5835 9.375 18.7501 9.375H14.5835C14.5835 9.375 14.7918 4.58333 14.5835 2.08333C14.4793 0.9375 13.646 0 12.5001 0C11.3543 0 10.521 0.9375 10.4168 2.08333C10.2085 4.47917 10.4168 9.375 10.4168 9.375H6.25012C5.41678 9.375 4.89595 10.2083 5.41678 10.8333L11.6668 17.2917Z" fill="#48413D"/>
<path d="M19.7917 19.7916H5.20833C4.0625 19.7916 3.125 20.7291 3.125 21.875C3.125 22.5 3.54167 22.9166 4.16667 22.9166H20.8333C21.4583 22.9166 21.875 22.5 21.875 21.875C21.875 20.7291 20.9375 19.7916 19.7917 19.7916Z" fill="#48413D"/>
</svg>
