<svg width="1438" height="428" viewBox="0 0 1438 428" fill="none" xmlns="http://www.w3.org/2000/svg">
<path fill-rule="evenodd" clip-rule="evenodd" d="M0 324.848V242.543C276.362 312.277 756.362 346.588 1440 345.475C985.541 436.928 505.541 452.371 0 391.805V324.848Z" fill="#FF7631"/>
<path fill-rule="evenodd" clip-rule="evenodd" d="M1579 324.229V241.923C1302.64 311.658 822.64 345.969 139 344.856C593.459 436.306 1073.46 451.749 1579 391.185V324.229Z" fill="#FF7631"/>
<path fill-rule="evenodd" clip-rule="evenodd" d="M0 -52C238.582 -29.1484 479.147 -17.6618 720 -17.621C960.853 -17.6618 1201.42 -29.1484 1440 -52V366.608C1201.42 389.459 960.853 400.946 720 400.986C479.147 400.946 238.582 389.459 0 366.608L0 -52Z" fill="#8C1244"/>
</svg>
